<?xml version="1.0" encoding="UTF-8"?><svg id="Layer_1" xmlns="http://www.w3.org/2000/svg" viewBox="0 0 400 400"><defs><style>.cls-1{fill:none;stroke:#404041;stroke-linecap:round;stroke-linejoin:round;}.cls-2{fill:#fff;stroke-width:0px;}</style></defs><rect class="cls-2" width="400" height="400"/><path class="cls-1" d="m333.82,200.19c-.64,8.29-5.38,23.74-9.18,29.77-5.96,9.45-15.53,12.79-20.51,16.52-7.65,5.73-13.56,6.49-22.2,9.16-11.5,3.55-6.21,12.75-7.63,21.78-.68,4.34-2.39,8.13-1.92,12.74.5,4.92.83,8.16.01,13.25-5.63-2.69-14.9-12.76-22.23-7.3-3.38,2.51-2.95,7.16-6.47,10.13-3.48,2.94-7.46,3.9-11.01,6.22-2.96,1.94-5.68,6.35-5.12,9.86.92,5.78,5.46,4.73,10.55,4.99,8.67.44,18.91.38,25.64-5.39,5.3-4.55,10.53-15.63,3.2-21.1-6.48-4.83-17.79,1.02-24.54-3.31-7.09-4.55-4.39-17.24-2.64-24.02,2.14-8.23,4.56-15.15,4.99-23.82.47-9.49,0-18.16,0-27.73s-3.08-17.94.54-26.08c4.5-10.13,12.79-9.59,22.62-8.43,7.55.89,18.84,2.47,24.57,7.77,9.33,8.62,4.87,25.11-4.34,32.44-15.14,12.05-8.05-18.51-17.33-23.52-3.23,3.58,6.18,12.87,3.92,18.21-3.39-2.83-4.36-7.76-7.94-10.79-4.42-3.74-6.31-2.73-4.42,2.77,2.78,8.11,9.3,14.21,10.66,22.6.67,4.16-.4,9.59,3.91,11.66,3.69,1.77,9.66-1.16,13.31-2.65,7.56-3.08,16.01-6.79,22.03-12.48,9.03-8.53,17.5-16.55,20.55-28.72,2.65-10.53,3.31-29.59-7.09-36.66-5.32,4.51-.82,18.91-5.41,25.18-4.82,6.58-17.18,3.7-23.43,2.05-7.56-2-16.19-2.94-23.33-6.07-8.58-3.77-5.8-14.39-6.64-22.75-.41-4.1-1.37-8.08-1.66-12.2-.46-6.43.19-7.31-6.1-8.88-8.81-2.2-18.11-4.07-27.18-5.54-5.36-.87-22.26-6.28-26.1-.58-1.62,2.41.34,9.68.58,12.78.36,4.66.33,9.14.56,13.87.24,4.9.32,8.55,4.44,10.97,3.42,2.01,9.35,2.17,13.31,2.93,9.16,1.73,18.02,4.18,27.18,5.55,2.13.32,12.23,2.08,12.23-1.14,0-2.25-10.04-2.45-12.23-2.79-8.97-1.37-18.13-2.82-27.18-4.3-8.1-1.33-17.3-4.12-25.51-3.33-9.03.87-13.58,7.29-17.32,15.27-3.54,7.56-4.75,15.86-8.89,23.29-4.09,7.35-6.92,13.78-9.43,21.77-2.59,8.24-5.1,15.67-8.06,23.42-4.04,10.57.9,12.38,11.09,14.73,20.75,4.78,23.4-19.91,26.94-34.26,1.99-8.07,7.09-13.61,9.96-21.21,1.83-4.87-4.12-20.34-.52-21.96,3.68,3.98,1.14,10.21,4.68,14.25,4.98-3.27-1.75-12.33,4.21-14.26,3.12,8.77-2.74,15.85-5.47,23.21-2.71,7.32-.63,18.29,2.37,25.42,2.77,6.57,10.97,10.74,17.06,12.87,5.62,1.97,16.67,4.67,21.52-.66,4.41-4.86,1.9-19.45,2.87-25.96,1.3-8.71,6.17-17.14,4.44-26.07-.69-3.57-1.89-8.28-6.52-9.01-4.65-.74-5.03,3.21-7.75,6.25-8.86,9.92-14.99-1.71-18.87-9.46-3.79-7.56-8.5-10.1-13.85-16.21-1.62-1.85-3.48-7.95-5.52-8.9-3.98-1.86-8.22,2.22-7.93,6.26.69,9.65,17.79,10.46,24.4,11.09,8.74.84,18.1,2.3,26.62,4.56,21.87,5.8,84.3,43.4,84.31-3.45,0-10.06-5.77-15.39-14.97-18.18-5.64-1.71-8.13-.29-9.43-6.78-.82-4.08-1.45-11.03.09-14.88,6.79.17,1.88,19.73,1.45,23.75-1.3,11.94-6.36,9.27-17.1,9.4-8.83.11-18.62,4.7-19.95-7.18-.77-6.9,3.15-21-2.33-25.94-5.09-4.6-19.36-3.57-25.94-4.53-3.02-.44-10.34-.94-11.12-4.45-.55-2.49,4.16-7.56,5.71-9.3,6-6.75,14.68-8.74,23.16-9.57,3.77-.37,10.26.32,11.21-2.34.75-2.09-2.06-9.86-2.34-12.63-.98-9.92-2.89-19.52,9.43-18.86,4.97.27,9.3-2.13,12.21,2.21.59.88-.47,2.94-.04,3.92.54,1.24,2.04.61,2.41,1.47.95,2.19.75,4.06,2.48,5.64.51-4.38,4.48-6.24,6.21-2.13,2.01,4.79-3.01,6.47-4.98,8.97-4.12,5.24-5.13,14.96-14.98,15.42-13.86.64-17.63-40.88-8.47-44.53,7.92-3.15,15.92-1.7,21.23,1.82,3.65,2.43,6.56,6.06,6.66,10.54.13,6.04-3,4.38-5.98,8.44-3.4,4.63-1.23,19.58,2.51,23.88,4.86,5.57,15.76,3.79,22.21,8.88,8.32,6.55,8.43,15.13,8.43,24.81,0,2.88,1.14,10.83-1.11,12.75-2.37,2.02-8.29-1.78-11.65-2.23-4.76-.64-8.68,1.05-11.8-3.19-2.01-2.73-1.9-9.39-2.07-12.88-.4-8.06,1.63-18.66-2.9-25.39-.84-1.25-1.41-2.56-2.65-3.5-2.7,3.31-1.41,7.82-7.21,8.82-3.45.59-8.91-1.79-11.79-3.63-3.73-2.38-4.53-4.3-9.29-4.59-3.63-.22-8.89,1.01-12.08,2.35-2.71,1.14-6.15,3.57-8.03,5.96-2.49,3.17-1.39,8.54-3.3,10.98-3.9,4.98-6.6-1.08-9.33-2.63-3.51-1.99-4.91.79-9.97,1.09-6.67.4-19.61-5.78-22.86,2.65-1.47,3.8,1.26,9.16,1.66,13,.48,4.61.08,8.2.12,12.63.03,3.79,1.78,9.17.14,12.89-1.81,4.1-5.94,4.14-9.03,6.38-7.52,5.46-5.07,15.43-2.76,22.89,2.6,8.36,2.84,15.41.59,23.84-2.16,8.08-9.19,13.96-10.01,22.18-.48,4.74.8,8.64-1.67,12.74-2.42,4.03-6.67,4.47-7.76,8.88-1.02,4.12.92,8.17-1.22,12.65-1.75,3.67-4.14,4.31-6.96,6.9-5.99,5.5-4.19,14.17-12.23,18.84-7.32,4.25-16.12,4.11-17.36-6.88-.98-8.7,5.77-12.39,9.48-19.33,3.98-7.44,3.45-17.84,13.84-14.93,9.49,2.65,11.33,12.99,4.59,19.51-2.7,2.61-5.74,4.61-7.73,7.8-2.09,3.33-2.37,7.65-5.85,10.25-6.39,4.76-12.76,1.5-13.93-2.44-.92-3.08,0-5.77,0-5.77"/></svg>