<?xml version="1.0" encoding="UTF-8"?><svg id="Layer_1" xmlns="http://www.w3.org/2000/svg" viewBox="0 0 300 207.69"><defs><style>.cls-1,.cls-2,.cls-3,.cls-4,.cls-5,.cls-6{stroke-width:0px;}.cls-2{fill:#d0aaff;}.cls-3{fill:#6aceff;}.cls-4{fill:#9fffd5;}.cls-5{fill:#fff1b4;}.cls-6{fill:#fff;}</style></defs><rect class="cls-6" width="300" height="207.69"/><rect class="cls-6" x="187.75" y="78.88" width="46.36" height="29.56"/><path class="cls-1" d="m234.11,108.6h-46.36c-.08,0-.15-.07-.15-.15v-29.56c0-.08.07-.15.15-.15h46.36c.08,0,.15.07.15.15v29.56c0,.08-.07.15-.15.15Zm-46.21-.31h46.05v-29.26h-46.05v29.26Z"/><path class="cls-1" d="m207.91,104h-14.38c-.08,0-.15-.07-.15-.15v-17.54c0-.08.07-.15.15-.15h14.38c.08,0,.15.07.15.15v17.54c0,.08-.07.15-.15.15Zm-14.22-.31h14.07v-17.24h-14.07v17.24Z"/><rect class="cls-5" x="211.99" y="86.15" width="17.28" height="5.66"/><rect class="cls-5" x="211.99" y="94.34" width="17.28" height="9.5"/><path class="cls-1" d="m229.27,82.74h-35.74c-.08,0-.15-.07-.15-.15s.07-.15.15-.15h35.74c.08,0,.15.07.15.15s-.07.15-.15.15Z"/><rect class="cls-5" x="155.24" y="40.3" width="46.36" height="29.56"/><path class="cls-1" d="m192.24,59.16c-.06,0-.12-.02-.16-.07-.09-.09-.09-.24,0-.33l3.56-3.56-3.56-3.56c-.09-.09-.09-.24,0-.33s.24-.09.33,0l3.72,3.72c.09.09.09.24,0,.33l-3.72,3.72s-.1.07-.16.07Z"/><path class="cls-1" d="m163.07,59.16c-.06,0-.12-.02-.16-.07l-3.72-3.72c-.09-.09-.09-.24,0-.33l3.72-3.72c.09-.09.24-.09.33,0,.09.09.09.24,0,.33l-3.56,3.56,3.56,3.56c.09.09.09.24,0,.33-.04.04-.1.07-.16.07Z"/><ellipse class="cls-2" cx="149.25" cy="131.51" rx="2.43" ry="2.44"/><ellipse class="cls-2" cx="156.34" cy="131.51" rx="2.43" ry="2.44"/><ellipse class="cls-2" cx="163.44" cy="131.51" rx="2.43" ry="2.44"/><path class="cls-1" d="m178.42,131.66h-10.01c-.08,0-.15-.07-.15-.15s.07-.15.15-.15h9.86v-34.22c0-.08.07-.15.15-.15h9.33c.08,0,.15.07.15.15s-.07.15-.15.15h-9.18v34.22c0,.08-.07.15-.15.15Z"/><rect class="cls-6" x="218.85" y="40.3" width="46.36" height="29.56"/><path class="cls-1" d="m265.2,70.02h-46.36c-.08,0-.15-.07-.15-.15v-29.56c0-.08.07-.15.15-.15h46.36c.08,0,.15.07.15.15v29.56c0,.08-.07.15-.15.15Zm-46.21-.31h46.05v-29.26h-46.05v29.26Z"/><path class="cls-1" d="m210.68,79.04c-.08,0-.15-.07-.15-.15v-24.06c0-.08.07-.15.15-.15h8.17c.08,0,.15.07.15.15s-.07.15-.15.15h-8.02v23.91c0,.08-.07.15-.15.15Z"/><circle class="cls-2" cx="210.68" cy="78.88" r="2" transform="translate(131.15 289.32) rotate(-89.83)"/><path class="cls-1" d="m235.99,45.24h-9.32c-.08,0-.15-.07-.15-.15s.07-.15.15-.15h9.32c.08,0,.15.07.15.15s-.07.15-.15.15Z"/><path class="cls-1" d="m246.99,45.24h-9.32c-.08,0-.15-.07-.15-.15s.07-.15.15-.15h9.32c.08,0,.15.07.15.15s-.07.15-.15.15Z"/><path class="cls-1" d="m255.24,45.24h-6.57c-.08,0-.15-.07-.15-.15s.07-.15.15-.15h6.57c.08,0,.15.07.15.15s-.07.15-.15.15Z"/><path class="cls-1" d="m234.62,48.44h-7.94c-.08,0-.15-.07-.15-.15s.07-.15.15-.15h7.94c.08,0,.15.07.15.15s-.07.15-.15.15Z"/><path class="cls-1" d="m244.24,48.44h-7.94c-.08,0-.15-.07-.15-.15s.07-.15.15-.15h7.94c.08,0,.15.07.15.15s-.07.15-.15.15Z"/><path class="cls-1" d="m257.99,48.44h-12.07c-.08,0-.15-.07-.15-.15s.07-.15.15-.15h12.07c.08,0,.15.07.15.15s-.07.15-.15.15Z"/><path class="cls-1" d="m233.24,51.64h-6.57c-.08,0-.15-.07-.15-.15s.07-.15.15-.15h6.57c.08,0,.15.07.15.15s-.07.15-.15.15Z"/><path class="cls-1" d="m244.24,51.64h-9.32c-.08,0-.15-.07-.15-.15s.07-.15.15-.15h9.32c.08,0,.15.07.15.15s-.07.15-.15.15Z"/><path class="cls-1" d="m252.49,51.64h-6.57c-.08,0-.15-.07-.15-.15s.07-.15.15-.15h6.57c.08,0,.15.07.15.15s-.07.15-.15.15Z"/><path class="cls-1" d="m233.24,58.04h-6.57c-.08,0-.15-.07-.15-.15s.07-.15.15-.15h6.57c.08,0,.15.07.15.15s-.07.15-.15.15Z"/><path class="cls-1" d="m244.24,58.04h-9.32c-.08,0-.15-.07-.15-.15s.07-.15.15-.15h9.32c.08,0,.15.07.15.15s-.07.15-.15.15Z"/><path class="cls-1" d="m229.12,61.23h-2.44c-.08,0-.15-.07-.15-.15s.07-.15.15-.15h2.44c.08,0,.15.07.15.15s-.07.15-.15.15Z"/><path class="cls-1" d="m251.04,61.23h-8.85c-.08,0-.15-.07-.15-.15s.07-.15.15-.15h8.85c.08,0,.15.07.15.15s-.07.15-.15.15Z"/><path class="cls-1" d="m240.27,61.23h-9.47c-.08,0-.15-.07-.15-.15s.07-.15.15-.15h9.47c.08,0,.15.07.15.15s-.07.15-.15.15Z"/><path class="cls-1" d="m235.99,64.43h-9.32c-.08,0-.15-.07-.15-.15s.07-.15.15-.15h9.32c.08,0,.15.07.15.15s-.07.15-.15.15Z"/><path class="cls-1" d="m246.99,64.43h-9.32c-.08,0-.15-.07-.15-.15s.07-.15.15-.15h9.32c.08,0,.15.07.15.15s-.07.15-.15.15Z"/><path class="cls-1" d="m257.99,64.43h-9.32c-.08,0-.15-.07-.15-.15s.07-.15.15-.15h9.32c.08,0,.15.07.15.15s-.07.15-.15.15Z"/><path class="cls-1" d="m187.75,90.6h-9.33c-.08,0-.15-.07-.15-.15v-19.51c0-.08.07-.15.15-.15s.15.07.15.15v19.35h9.18c.08,0,.15.07.15.15s-.07.15-.15.15Z"/><ellipse class="cls-2" cx="90.75" cy="125.02" rx="2.44" ry="2.43"/><ellipse class="cls-2" cx="90.75" cy="132.12" rx="2.44" ry="2.43"/><ellipse class="cls-2" cx="90.75" cy="139.21" rx="2.44" ry="2.43"/><path class="cls-1" d="m133.16,152.97h-42.41c-.08,0-.15-.07-.15-.15v-8.63c0-.08.07-.15.15-.15s.15.07.15.15v8.48h42.26c.08,0,.15.07.15.15s-.07.15-.15.15Z"/><ellipse class="cls-2" cx="254.82" cy="118.21" rx="2.44" ry="2.43"/><ellipse class="cls-2" cx="254.82" cy="111.12" rx="2.44" ry="2.43"/><ellipse class="cls-2" cx="254.82" cy="104.02" rx="2.44" ry="2.43"/><path class="cls-1" d="m254.82,99.2c-.08,0-.15-.07-.15-.15v-5.72h-20.55c-.08,0-.15-.07-.15-.15s.07-.15.15-.15h20.71c.08,0,.15.07.15.15v5.87c0,.08-.07.15-.15.15Z"/><rect class="cls-6" x="107.15" y="147.45" width="10.74" height="10.74" transform="translate(-75.1 124.32) rotate(-45)"/><path class="cls-1" d="m112.52,160.56s-.08-.01-.11-.04l-7.59-7.59c-.06-.06-.06-.16,0-.22l7.59-7.59c.06-.06.16-.06.22,0l7.59,7.59s.04.07.04.11-.02.08-.04.11l-7.59,7.59s-.07.04-.11.04Zm-7.37-7.74l7.37,7.37,7.37-7.37-7.37-7.37-7.37,7.37Z"/><rect class="cls-6" x="133.16" y="137.71" width="46.36" height="29.56"/><path class="cls-1" d="m179.52,167.42h-46.36c-.08,0-.15-.07-.15-.15v-29.56c0-.08.07-.15.15-.15h46.36c.08,0,.15.07.15.15v29.56c0,.08-.07.15-.15.15Zm-46.21-.31h46.05v-29.26h-46.05v29.26Z"/><rect class="cls-5" x="139.11" y="142.63" width="16.8" height="16.8"/><path class="cls-1" d="m173.51,143.39h-12.11c-.08,0-.15-.07-.15-.15s.07-.15.15-.15h12.11c.08,0,.15.07.15.15s-.07.15-.15.15Z"/><path class="cls-1" d="m173.51,146.71h-12.11c-.08,0-.15-.07-.15-.15s.07-.15.15-.15h12.11c.08,0,.15.07.15.15s-.07.15-.15.15Z"/><path class="cls-1" d="m173.51,150.04h-12.11c-.08,0-.15-.07-.15-.15s.07-.15.15-.15h12.11c.08,0,.15.07.15.15s-.07.15-.15.15Z"/><path class="cls-1" d="m124.04,133.77c-3.3,0-5.99-2.68-5.99-5.98,0-.18.01-.38.03-.59-2.24-.57-4.37-1.45-6.36-2.63-.14.17-.27.31-.4.44-2.33,2.33-6.13,2.33-8.47,0-1.13-1.13-1.75-2.63-1.75-4.23s.62-3.1,1.75-4.23c.13-.13.27-.26.44-.39-1.18-1.98-2.06-4.12-2.63-6.35-.21.02-.41.03-.59.03-3.3,0-5.99-2.68-5.99-5.98s2.69-5.98,5.99-5.98c.19,0,.38.01.59.03.57-2.24,1.45-4.37,2.63-6.35-.17-.14-.31-.27-.44-.39-1.13-1.13-1.75-2.63-1.75-4.23s.62-3.1,1.75-4.23c2.33-2.33,6.13-2.33,8.47,0,.13.13.26.27.4.44,1.98-1.18,4.12-2.06,6.36-2.63-.02-.21-.03-.41-.03-.59,0-3.3,2.69-5.98,5.99-5.98s5.99,2.68,5.99,5.98c0,.19-.01.38-.03.59,2.24.57,4.37,1.45,6.36,2.63.14-.17.27-.31.4-.44,2.33-2.33,6.13-2.33,8.47,0,1.13,1.13,1.75,2.63,1.75,4.23s-.62,3.1-1.75,4.23c-.13.13-.27.26-.44.39,1.18,1.98,2.06,4.12,2.63,6.35.22-.02.41-.03.59-.03,3.3,0,5.99,2.68,5.99,5.98s-2.69,5.98-5.99,5.98c-.18,0-.38-.01-.59-.03-.57,2.24-1.45,4.37-2.63,6.35.17.14.31.26.44.39,1.13,1.13,1.75,2.63,1.75,4.23s-.62,3.1-1.75,4.23c-2.33,2.33-6.13,2.33-8.47,0-.13-.13-.26-.27-.4-.44-1.98,1.18-4.12,2.06-6.36,2.63.02.22.03.41.03.59,0,3.3-2.69,5.98-5.99,5.98Zm-12.34-9.56s.05,0,.08.02c2.03,1.22,4.22,2.13,6.52,2.7.08.02.12.09.12.17-.03.25-.05.48-.05.69,0,3.13,2.55,5.68,5.68,5.68s5.68-2.55,5.68-5.68c0-.21-.01-.43-.05-.69,0-.08.04-.15.12-.17,2.3-.57,4.49-1.48,6.52-2.7.07-.04.15-.02.2.04.16.2.31.37.45.52,2.21,2.21,5.82,2.21,8.03,0,1.07-1.07,1.66-2.5,1.66-4.01s-.59-2.94-1.66-4.01c-.15-.15-.32-.3-.52-.45-.06-.05-.08-.13-.04-.2,1.22-2.02,2.13-4.22,2.7-6.51.02-.08.09-.12.17-.12.25.03.48.05.69.05,3.13,0,5.68-2.55,5.68-5.68s-2.55-5.68-5.68-5.68c-.21,0-.43.01-.69.05-.07,0-.15-.04-.17-.12-.57-2.3-1.48-4.49-2.7-6.51-.04-.07-.02-.15.04-.2.2-.16.37-.31.52-.45,1.07-1.07,1.66-2.5,1.66-4.01s-.59-2.94-1.66-4.01c-2.21-2.21-5.82-2.21-8.03,0-.15.15-.3.32-.45.52-.05.06-.13.08-.2.04-2.03-1.22-4.22-2.13-6.52-2.7-.08-.02-.12-.09-.12-.17.03-.26.05-.48.05-.69,0-3.13-2.55-5.68-5.68-5.68s-5.68,2.55-5.68,5.68c0,.21.02.43.05.69,0,.08-.04.15-.12.17-2.3.57-4.49,1.48-6.52,2.7-.07.04-.15.02-.2-.04-.16-.2-.31-.37-.45-.52-2.21-2.21-5.82-2.21-8.03,0-1.07,1.07-1.66,2.5-1.66,4.01s.59,2.94,1.66,4.01c.15.15.32.3.52.45.06.05.08.13.04.2-1.22,2.03-2.13,4.22-2.7,6.51-.02.08-.09.12-.17.12-.26-.03-.48-.05-.69-.05-3.13,0-5.68,2.55-5.68,5.68s2.55,5.68,5.68,5.68c.21,0,.43-.01.69-.05.08,0,.15.04.17.12.57,2.3,1.48,4.49,2.7,6.51.04.07.02.15-.04.2-.2.16-.37.31-.52.45-1.07,1.07-1.66,2.5-1.66,4.01s.59,2.94,1.66,4.01c2.21,2.21,5.82,2.21,8.03,0,.15-.15.3-.32.45-.52.03-.04.08-.06.12-.06Zm12.34-1.89c-10.19,0-18.48-8.29-18.48-18.47s8.29-18.47,18.48-18.47,18.48,8.29,18.48,18.47-8.29,18.47-18.48,18.47Zm0-36.64c-10.02,0-18.17,8.15-18.17,18.17s8.15,18.17,18.17,18.17,18.17-8.15,18.17-18.17-8.15-18.17-18.17-18.17Z"/><path class="cls-1" d="m118.77,50.85c-.29-.86-.87-1.65-1.69-2.04-.82-.39-1.87-.33-2.55.28-.47.41-.72,1.03-.82,1.65-.16.97,0,2,.56,2.81.56.8,1.52,1.34,2.5,1.28,2.21-.13,2.57-2.26,2-3.97Z"/><path class="cls-1" d="m133.18,60.83c-.14-.95-.29-1.93-.04-2.86.21-.8.72-1.54.74-2.37.03-.9-.54-1.74-1.27-2.26-.73-.52-1.62-.76-2.5-.94-2.05-.44-4.15-.64-6.25-.59-1.65.04-3.39.27-4.7,1.29-1.3,1.01-1.96,2.63-2.47,4.2-1.51,4.62-2.22,9.47-2.93,14.28-.12.79-.23,1.63.08,2.37.43,1.04,1.56,1.59,2.61,1.97,4.46,1.61,9.29,1.9,14.01,1.61,1.15-.07,2.35-.19,3.33-.81,2.28-1.43,1.09-4.72.76-6.86-.46-3.01-.91-6.03-1.37-9.04Z"/><path class="cls-6" d="m163.41,65.28c.82,1.44,1.77,2.81,2.89,4.04.59.65,1.21,1.27,1.89,1.81.67.54,1.38,1.02,2.12,1.46.2.12.4.24.61.35,3.7-7.01,5.78-14.01,5.78-14.01,2.95-2.13,1.24-3.24,1.24-3.24.46-1.84-1.03-2-1.03-2-.44-2.22-2.41-1.3-2.41-1.3,1.61-2.37,2.4-6.24-2.29-1.4-2.77,2.86-6.33,8.18-9.53,12.92.23.46.48.92.73,1.37Z"/><path class="cls-1" d="m171.2,72.53s-.03,0-.04,0c-.08-.02-.13-.1-.11-.19.07-.27.2-.45.34-.64.04-.06.08-.12.13-.18,2.14-4.59,3.8-8.74,5.05-12.68.01-.03.03-.06.06-.08.64-.46,1.25-.89,1.51-1.59.12-.36.24-1.02-.31-1.38-.06-.04-.08-.11-.06-.18.26-.69-.12-1.51-.84-1.83-.23-.08-.28-.32-.32-.54-.02-.13-.05-.25-.11-.34-.55-.74-1.37-.61-1.95-.38,0,0,0,0,0,0,0,0,0,0,0,0h0s0,0,0,0c-.01,0-.02,0-.04,0h0s0,0,0,0h0s-.03,0-.05,0c0,0,0,0,0,0h0s0,0,0,0c0,0,0,0,0,0,0,0,0,0,0,0h0s0,0,0,0c0,0,0,0,0,0h0s-.04-.01-.05-.02c0,0,0,0,0,0,0,0,0,0,0,0h0s0,0,0,0c0,0,0,0,0,0,0,0,0,0,0,0,0,0,0,0,0,0h0s0,0,0,0h0s0,0,0,0c0,0-.01-.01-.02-.02,0,0,0,0,0,0,0,0,0,0,0,0,0,0,0,0,0,0-.01-.01-.02-.03-.03-.04h0s0,0,0,0h0s0,0,0,0c0,0,0,0,0,0h0s0,0,0,0c0-.01,0-.03,0-.04,0-.02,0-.04,0-.06,0-.01,0-.02.02-.03l.14-.22c.63-.99,1.35-2.11.98-3.22-.05-.03-.16-.03-.22-.03-.85.24-1.51.83-2.15,1.39-.09.08-.17.15-.26.23-3.22,3.3-5.62,6.91-8.17,10.74-.49.73-.97,1.47-1.47,2.2-.05.07-.14.09-.21.04-.07-.05-.09-.14-.04-.21.49-.73.98-1.47,1.47-2.2,2.55-3.84,4.97-7.47,8.22-10.79.09-.08.18-.16.26-.23.67-.6,1.36-1.21,2.29-1.46.01,0,.03,0,.04,0,.11,0,.34,0,.48.14.02.02.03.04.04.06.42,1.17-.23,2.33-.84,3.29,0,.02-.02.06-.04.09.77-.18,1.43.03,1.87.63.1.15.13.31.16.46.04.18.06.29.13.31.84.37,1.29,1.3,1.05,2.11.45.36.57.96.33,1.67-.29.77-.94,1.25-1.58,1.7-1.26,3.94-2.91,8.09-5.06,12.68,0,0,0,.01-.01.02-.05.07-.09.14-.14.2-.13.18-.23.32-.29.53-.02.07-.08.12-.15.12Z"/><path class="cls-1" d="m170.63,60.43c-.07,0-.14,0-.21-.02-.08-.02-.14-.09-.12-.18.02-.08.09-.14.18-.12.5.09.95-.27,1.19-.61.23-.33.36-.71.5-1.11.04-.1.07-.2.11-.3.17-.46.43-1.03.92-1.37.23-.16.5-.25.75-.35.11-.04.23-.08.34-.13.28-.12.63-.33.72-.67.11-.43-.28-.88-.72-1-.47-.13-.99,0-1.48.18-1.36.47-2.49,1.1-3.36,1.88-.06.06-.16.05-.22-.01-.06-.06-.05-.16.01-.22.9-.81,2.07-1.46,3.47-1.94.54-.18,1.11-.33,1.66-.18.57.16,1.1.76.93,1.38-.12.46-.56.73-.9.87-.12.05-.24.09-.35.13-.25.09-.48.17-.68.31-.42.29-.65.81-.81,1.23-.04.1-.07.2-.11.3-.14.4-.29.82-.54,1.19-.26.36-.73.75-1.28.75Z"/><path class="cls-1" d="m173.95,57.7s-.08,0-.12,0c-.37-.04-.74-.36-.71-.77,0-.08.08-.15.17-.14.08,0,.15.08.14.17-.02.22.22.41.44.44.22.03.46-.05.77-.23,1.08-.65,1.79-1.84,1.87-3.1,0-.08.08-.15.16-.14.08,0,.15.08.14.16-.08,1.35-.86,2.63-2.02,3.34-.21.13-.51.28-.84.28Z"/><path class="cls-1" d="m175.39,57.96c-.06,0-.11,0-.17-.01-.33-.05-.6-.29-.65-.58-.02-.08.04-.16.12-.18.09-.02.16.04.18.12.03.18.23.31.4.33.18.03.38,0,.64-.12.72-.31,1.31-.9,1.61-1.63.03-.08.12-.12.2-.08.08.03.12.12.08.2-.33.8-.98,1.46-1.77,1.8-.24.1-.45.15-.64.15Z"/><path class="cls-1" d="m176.48,58.7c-.18,0-.36-.06-.5-.17-.23-.18-.35-.5-.3-.79.02-.08.1-.14.18-.12.08.02.14.1.12.18-.03.18.04.38.18.49.14.11.35.13.52.06.08-.04.17,0,.2.07.04.08,0,.17-.07.2-.11.05-.22.07-.34.07Z"/><path class="cls-4" d="m85.49,87.73s6.08,11.52,15.34,11.25c9.26-.27,13.25-8.54,13.25-8.54,0,0-2.74,8.4.29,10.65,3.03,2.25,24.85,4.42,26.36-2.47,1.08-4.92.19-8.19.75-12.1,0,0,15.12,1.84,22.69-3.93,4.8-3.66,8.28-12.46,8.28-12.46,0,0-3.1-6.61-9.35-6.85l-3.41,4.78c-1.9,2.66-4.94,4.28-8.21,4.35l-36.7.88c-3.8.09-7.34,1.99-9.47,5.14-2.34,3.46-6.11,7.36-11.02,6.81l-8.8,2.47Z"/><path class="cls-1" d="m141.34,86.06c-.08,0-.15-.07-.15-.15-.02-1.82.37-3.65,1.1-5.31.03-.08.13-.11.2-.08.08.03.11.13.08.2-.72,1.62-1.09,3.41-1.08,5.18,0,.08-.07.15-.15.15h0Z"/><path class="cls-1" d="m123.56,90.6c-.55,0-1.11-.08-1.64-.24-1.4-.42-2.61-1.39-3.33-2.65-.04-.07-.02-.17.06-.21.07-.04.17-.02.21.06.68,1.2,1.83,2.11,3.15,2.51,1.32.4,2.78.27,4.02-.36.08-.04.17,0,.21.07.04.08,0,.17-.07.21-.8.41-1.7.61-2.6.61Z"/><path class="cls-1" d="m135.14,89.37c-.07,0-.14-.05-.15-.13-.01-.08.04-.16.13-.18,1.95-.3,3.62-2.01,3.9-3.96.17-1.23-.2-2.53-1.01-3.57-.05-.07-.04-.16.03-.22.07-.05.16-.04.22.03.87,1.1,1.26,2.49,1.08,3.8-.29,2.08-2.08,3.89-4.16,4.22,0,0-.02,0-.02,0Z"/><path class="cls-1" d="m114.2,89.64s-.01,0-.02,0c-.08-.01-.14-.09-.13-.17.11-.89.22-1.81.02-2.7-.17-.75-.66-1.65-1.54-1.96-.08-.03-.12-.12-.09-.2.03-.08.11-.12.2-.09.84.29,1.51,1.13,1.74,2.18.21.94.09,1.93-.02,2.8,0,.08-.08.13-.15.13Z"/><path class="cls-1" d="m99.21,90.45h-14.17c-.3,0-.58-.17-.71-.44l-9.73-19.54c-.26-.53.12-1.15.71-1.15h14.17c.3,0,.58.17.71.44l9.73,19.54c.26.53-.12,1.15-.71,1.15Z"/><path class="cls-6" d="m83.5,78.81c-.33-.14-.66.18-.86.47-.54.8-.93,1.71-1.14,2.65.16-1.76.33-3.53.49-5.29.05-.57-.03-1.32-.59-1.43-.43-.08-.8.32-1.02.7-.46.78-.77,1.64-.91,2.53.21-1.22.42-2.44.63-3.65.05-.28.09-.59-.03-.84-.27-.55-1.16-.45-1.54.04-.06.07-.1.15-.14.23.02-.08.04-.17.05-.25.11-.6-.07-1.37-.66-1.5-.37-.09-.75.13-.97.44-.22.31-.3.69-.36,1.06-.25,1.61-.12,3.28.38,4.84.91,3.65,3.44,6.96,6.48,9.17-.76-2.71.45-5.52.52-8.34,0-.31-.04-.69-.33-.81Z"/><path class="cls-1" d="m83.31,88.12s-.06,0-.09-.03c-3.29-2.39-5.67-5.76-6.54-9.26-.5-1.58-.63-3.27-.38-4.9.06-.39.15-.79.39-1.12.23-.32.67-.6,1.13-.5.56.13.82.75.81,1.37.25-.18.57-.28.88-.25.32.03.57.19.7.45.15.31.09.67.05.94l-.26,1.5c.08-.16.17-.32.26-.48.34-.58.76-.85,1.18-.77.53.1.79.7.71,1.6l-.36,3.88c.2-.47.44-.93.73-1.35.32-.47.71-.67,1.04-.53.21.09.45.32.43.96-.03,1.04-.21,2.1-.39,3.11-.31,1.8-.61,3.49-.14,5.18.02.06,0,.13-.06.17-.03.02-.06.03-.09.03Zm-5.69-15.52c-.27,0-.54.19-.68.39-.2.28-.28.64-.33.99-.25,1.58-.12,3.23.37,4.77.83,3.31,3.03,6.51,6.09,8.84-.34-1.62-.05-3.28.23-4.89.18-1.01.36-2.05.39-3.07,0-.26-.03-.58-.24-.67-.22-.09-.49.15-.67.42-.53.78-.91,1.68-1.11,2.6-.02.08-.09.13-.17.12-.08-.01-.14-.08-.13-.17l.49-5.29c.02-.19.08-1.16-.46-1.27-.39-.08-.73.41-.86.63-.42.7-.71,1.49-.86,2.3l-.03.18c-.01.08-.09.14-.18.13-.08-.01-.14-.09-.13-.18,0-.06.02-.12.03-.18l.6-3.47c.05-.29.08-.54-.02-.75-.11-.22-.33-.27-.45-.28-.31-.03-.65.11-.82.34-.05.06-.09.13-.13.21-.04.07-.12.1-.19.07-.07-.03-.11-.1-.1-.18.02-.08.04-.16.05-.24.09-.48-.02-1.2-.54-1.33-.04-.01-.09-.02-.13-.02Z"/><path class="cls-1" d="m77.65,78.95c-.08,0-.14-.06-.15-.14-.17-1.48.04-2.98.62-4.35.03-.08.12-.11.2-.08.08.03.11.12.08.2-.56,1.32-.77,2.77-.6,4.2,0,.08-.05.16-.13.17,0,0-.01,0-.02,0Z"/><path class="cls-1" d="m79.53,81.49c-.07,0-.14-.05-.15-.13-.16-.85-.19-1.72-.08-2.58.01-.08.09-.15.17-.13.08.01.14.09.13.17-.1.83-.08,1.67.08,2.49.02.08-.04.16-.12.18,0,0-.02,0-.03,0Z"/><path class="cls-6" d="m123.66,64.3l-1.07,7.75c-.06.41-.38.74-.79.8l-2.39.39s6.44,5.67,12.89-.25l-2.48-.28c-.5-.06-.88-.49-.87-1l.11-6.38s-.56-4.22-5.39-1.02Z"/><path class="cls-6" d="m121.98,62.28c-.45.35-.65.96-.55,1.52.1.56.47,1.04.96,1.33s1.07.39,1.63.34c.31-.03.63-.1.93,0,.23.08.4.26.58.42.86.75,2.07,1.08,3.19.85,1.12-.23,2.1-1.04,2.52-2.1.34-.88.29-1.86.14-2.79-.29-1.78-.93-3.48-1.67-5.12-1.29.3-2.64.32-3.94.06.35,1.02.31,2.16-.1,3.15-.31.76-.84,1.42-1.49,1.91-.13.1-.34.29-.5.32-.2.04-.33-.09-.54-.14-.39-.1-.83,0-1.15.24Z"/><path class="cls-1" d="m128.01,66.97c-.93,0-1.87-.34-2.58-.96-.03-.03-.06-.05-.09-.08-.15-.13-.28-.25-.44-.31-.2-.07-.43-.05-.68-.02-.06,0-.12.01-.18.02-.63.06-1.24-.07-1.72-.36-.54-.32-.93-.86-1.03-1.44-.11-.63.13-1.29.61-1.66.35-.27.84-.38,1.28-.27.09.02.17.06.23.09.11.05.17.07.24.06.09-.02.24-.14.35-.22.04-.03.07-.05.1-.08.64-.48,1.14-1.12,1.44-1.85.39-.96.43-2.07.09-3.05-.02-.05,0-.11.03-.15.04-.04.09-.06.15-.05,1.27.26,2.61.24,3.87-.06.07-.02.14.02.17.09.62,1.37,1.37,3.19,1.69,5.16.12.75.24,1.86-.15,2.87-.42,1.09-1.46,1.95-2.63,2.2-.24.05-.49.08-.74.08Zm-3.42-1.7c.14,0,.28.02.41.07.22.08.38.23.54.37.03.03.06.05.09.08.83.72,2.01,1.03,3.06.81,1.07-.22,2.02-1.01,2.4-2.01.36-.93.25-1.99.14-2.71-.3-1.88-1.01-3.63-1.61-4.97-1.19.26-2.43.29-3.63.08.27.99.21,2.07-.18,3.01-.32.78-.86,1.47-1.54,1.98-.03.02-.06.04-.09.07-.14.11-.31.25-.47.28-.18.04-.32-.02-.43-.08-.06-.03-.12-.05-.18-.07-.35-.09-.74,0-1.02.22-.39.3-.58.85-.49,1.37.09.49.42.95.89,1.23.43.26.98.37,1.54.32.06,0,.12-.01.17-.02.13-.02.27-.03.4-.03Zm-2.61-2.98h0,0Z"/><path class="cls-1" d="m123.99,64.7c-.05,0-.1-.03-.13-.07-.2-.34-.59-.56-.99-.58-.08,0-.15-.07-.15-.16,0-.08.07-.15.16-.15.5.02.98.29,1.24.72.04.07.02.17-.05.21-.02.01-.05.02-.08.02Z"/><path class="cls-6" d="m124.04,122.16c5.33,0,10.13-2.28,13.48-5.91l-.34-14.93c-.58-1.65-2.15-2.74-3.89-2.7l-14.57.3c-1.69.04-3.17,1.12-3.73,2.71-.4,1.14-2.87,6.96-5.54,13.29,3.35,4.39,8.64,7.23,14.59,7.23Z"/><path class="cls-1" d="m109.45,115.09s-.04,0-.06-.01c-.08-.03-.11-.12-.08-.2l1.28-3.04c2.1-4.99,3.92-9.29,4.25-10.24.03-.08.11-.12.2-.09.08.03.12.12.09.2-.33.96-2.15,5.27-4.26,10.26l-1.28,3.04c-.02.06-.08.09-.14.09Z"/><path class="cls-1" d="m137.52,116.41c-.08,0-.15-.07-.15-.15l-.34-14.93c0-.08.07-.15.15-.16h0c.08,0,.15.07.15.15l.34,14.93c0,.08-.07.15-.15.16h0Z"/><path class="cls-1" d="m123.69,122.24s-.02,0-.03,0c-.08-.02-.13-.1-.12-.18l1.71-7.68c.3-1.35,1.19-2.47,2.44-3.07l2-.96c.08-.04.17,0,.2.07.04.08,0,.17-.07.2l-2,.96c-1.16.56-1.99,1.6-2.27,2.86l-1.71,7.68c-.02.07-.08.12-.15.12Z"/><path class="cls-1" d="m124.04,122.32c-10.19,0-18.48-8.29-18.48-18.47,0-.08.07-.15.15-.15s.15.07.15.15c0,10.02,8.15,18.17,18.17,18.17s18.17-8.15,18.17-18.17c0-.08.07-.15.15-.15s.15.07.15.15c0,10.19-8.29,18.47-18.48,18.47Z"/><path class="cls-1" d="m86.36,65.88s-.08-.02-.11-.05c-.06-.06-.06-.16,0-.22l8.9-8.84c.06-.06.16-.06.22,0,.06.06.06.16,0,.22l-8.9,8.84s-.07.04-.11.04Z"/><path class="cls-1" d="m95.27,65.88s-.08-.01-.11-.04c-.06-.06-.06-.16,0-.22l10.92-11.35c.06-.06.16-.06.22,0,.06.06.06.16,0,.22l-10.92,11.35s-.07.05-.11.05Z"/><path class="cls-1" d="m97.52,75.26s-.08-.01-.11-.04c-.06-.06-.06-.16,0-.22l5.58-5.71c.06-.06.16-.06.22,0,.06.06.06.16,0,.22l-5.58,5.71s-.07.05-.11.05Z"/><path class="cls-1" d="m223.85,102.94s-4.23,1.22-3.9-3.18c.3-3.96,1.68-.93,2.25-1.1.6-.19.11-1.41.89-1.51.77-.1,1.36,1.02,2.13.83.77-.19,2.3-1.37,3.78-.52,1.24.71,1.3,2.18,1.3,2.18,0,0,1.54.13,1.89,2.47.35,2.34-2.84,6.69-2.84,6.69l-5.5-5.85Z"/><path class="cls-6" d="m230.37,106.92l2.26,6.6c.14.42.5.73.94.82l1,.2s-2.61,5.67-7.01,4.72c-4.4-.95-3.43-4.72-3.43-4.72l.93-.08c.56-.05.94-.58.8-1.12l-1.05-4.05s4.26-3.44,5.56-2.36Z"/><path class="cls-1" d="m228.54,119.51c-.33,0-.66-.03-1.01-.11-1.45-.31-2.49-.96-3.08-1.92-.86-1.39-.48-2.92-.46-2.98.02-.06.07-.11.14-.11l.93-.08c.22-.02.42-.13.55-.31.13-.18.17-.41.11-.62l-1.05-4.05c-.01-.06,0-.12.05-.16.45-.36,4.4-3.48,5.75-2.36.02.02.04.04.05.07l2.26,6.6c.13.37.44.64.82.72l1,.2s.09.04.11.08c.02.04.02.09,0,.13-.02.05-2.31,4.91-6.17,4.91Zm-4.28-4.84c-.07.36-.22,1.56.45,2.64.55.89,1.52,1.49,2.89,1.78,3.8.82,6.27-3.52,6.75-4.46l-.81-.16c-.49-.1-.89-.45-1.06-.92l-2.24-6.55c-1-.73-4.05,1.37-5.26,2.32l1.02,3.96c.08.3.02.62-.16.88-.18.25-.46.41-.77.44l-.82.07Z"/><path class="cls-6" d="m228.84,107.95s-1.09,2.52-3.95,2.06c-2.86-.47-2.93-4.11-2.68-7.98.42.2.92.34,1.65.32,1.24-.04,3.82-.54,3.94-.82-.47,1.09-.64,2.22-.06,2.92.23.31.66.53,1.42.54,0,0,.36-1.21,1.44-.51,1.08.7.68,3.67-1.76,3.47Z"/><path class="cls-1" d="m225.57,110.22c-.22,0-.46-.02-.71-.06-3.05-.5-3.05-4.46-2.81-8.14,0-.05.03-.1.08-.12.04-.03.1-.03.14,0,.47.23.97.32,1.58.31,1.26-.04,3.59-.52,3.81-.74.04-.07.12-.1.2-.07.08.03.11.12.08.2-.37.86-.68,2.04-.08,2.76.22.29.62.45,1.19.48.08-.18.27-.54.63-.67.3-.11.63-.04,1,.19.59.39.81,1.36.5,2.27-.34.99-1.18,1.54-2.25,1.49-.22.43-1.24,2.11-3.36,2.11Zm-3.22-7.96c-.22,3.48-.18,7.15,2.56,7.6,2.71.44,3.78-1.94,3.79-1.97.03-.06.09-.1.15-.09,1.41.12,1.89-.86,2.04-1.28.26-.76.1-1.6-.37-1.91-.28-.18-.52-.24-.73-.16-.34.12-.49.58-.49.59-.02.07-.08.11-.15.11h0c-.73-.01-1.25-.21-1.54-.6-.49-.59-.53-1.51-.11-2.68-.9.34-2.92.62-3.64.64-.58.02-1.06-.06-1.52-.24Zm5.32-.79s0,0,0,0c0,0,0,0,0,0Z"/><path class="cls-1" d="m229.55,106.55s-.03,0-.05,0c-.08-.03-.12-.11-.1-.19.06-.19.14-.41.27-.59.16-.22.38-.36.61-.37.08,0,.16.06.16.14,0,.08-.06.16-.14.16-.14,0-.28.1-.38.25-.11.15-.17.33-.23.51-.02.06-.08.1-.15.1Z"/><path class="cls-3" d="m236.27,142.86l-13.34-1.67-1.27,3.05,10.33,5.03s5.12-3.53,4.28-6.41Z"/><path class="cls-6" d="m239.6,153.51s-33.3-23.65-43.37-20.89c-10.08,2.76-7.8,15.75-1.87,20.75,4.12,3.48,10.65,9.05,29.08,13.34,18.44,4.29,16.16-13.21,16.16-13.21Z"/><path class="cls-1" d="m228.77,167.54c-1.62,0-3.42-.23-5.37-.68-18.39-4.28-25.09-9.94-29.09-13.33l-.06-.05c-1.8-1.52-3.29-3.77-4.2-6.35-.93-2.64-1.16-5.38-.65-7.72.54-2.47,2.16-5.68,6.78-6.94,4.22-1.16,12.83,2.01,25.58,9.43,9.48,5.51,17.84,11.43,17.92,11.49.03.02.06.06.06.11,0,.08.92,7.54-3.5,11.54-1.85,1.68-4.36,2.52-7.48,2.52Zm-30.68-35c-.67,0-1.28.07-1.83.22-4.47,1.23-6.04,4.33-6.56,6.71-1.02,4.62,1.07,10.67,4.75,13.78l.06.05c4.24,3.58,10.65,8.99,28.96,13.26,5.61,1.31,9.84.71,12.58-1.76,4.08-3.69,3.49-10.47,3.41-11.21-1.46-1.03-30.01-21.05-41.36-21.05Z"/><path class="cls-1" d="m210.68,162.64s-.04,0-.06-.01c-.08-.03-.12-.12-.09-.2,1.71-4.26,9.18-12.24,9.5-12.58.06-.06.15-.06.22,0,.06.06.06.16,0,.22-.08.08-7.75,8.28-9.43,12.49-.02.06-.08.1-.14.1Z"/><path class="cls-1" d="m232.35,156.79s-.07-.01-.1-.04c-5.08-4.26-28.12-16.66-28.35-16.78-.07-.04-.1-.13-.06-.21.04-.07.13-.1.21-.06.23.12,23.3,12.54,28.4,16.82.06.05.07.15.02.22-.03.04-.07.05-.12.05Z"/><path class="cls-6" d="m211.34,165.67c-.26.31-.31.75-.14,1.12s.54.6.95.6h28.77c2.98,0,5.85-1.13,8.03-3.16,3.1-2.88,7.77-7.27,11.71-11.17,4.46-4.41,5.87-11.06,3.59-16.91-.03-.09-.07-.17-.1-.26-1.93-4.91-7.96-6.72-12.26-3.66-8.67,6.17-22.4,16.3-27.84,22.36,0,0-9.3,6.9-12.71,11.08Z"/><path class="cls-1" d="m240.93,167.54h-28.77c-.46,0-.89-.27-1.09-.69-.2-.42-.14-.92.16-1.28,3.33-4.07,12.33-10.8,12.73-11.09,5.55-6.17,19.83-16.66,27.85-22.37,2.08-1.48,4.69-1.92,7.14-1.19,2.46.73,4.41,2.52,5.35,4.91l.1.26c2.31,5.91.89,12.61-3.62,17.07-3.9,3.86-8.52,8.2-11.71,11.17-2.22,2.06-5.11,3.2-8.14,3.2Zm15.65-36.66c-1.63,0-3.23.5-4.59,1.48-8.02,5.7-22.29,16.19-27.81,22.33,0,0-.01.01-.02.02-.09.07-9.32,6.94-12.68,11.05-.22.27-.26.64-.12.95.15.31.47.51.81.51h28.77c2.95,0,5.77-1.11,7.93-3.12,3.19-2.97,7.8-7.31,11.7-11.17,4.42-4.37,5.82-10.94,3.55-16.74l-.1-.26c-.91-2.3-2.78-4.03-5.15-4.73-.75-.22-1.52-.33-2.28-.33Zm-45.23,34.78h0,0Z"/><path class="cls-1" d="m235.36,167.54c-.05,0-.1-.03-.13-.08-.04-.07-.02-.17.05-.21,6.95-4.09,14.89-11.16,20.25-18.02.71-.91,1.44-1.89,1.86-2.98.03-.08.12-.12.2-.09.08.03.12.12.09.2-.44,1.13-1.18,2.13-1.9,3.06-5.38,6.89-13.36,13.99-20.34,18.1-.02.01-.05.02-.08.02Z"/><path class="cls-1" d="m236.82,165.24s-.09-.02-.12-.05c-3.58-4.11-7.73-7.68-12.32-10.6-.07-.05-.09-.14-.05-.21.05-.07.14-.09.21-.05,4.62,2.94,8.79,6.53,12.39,10.66.06.06.05.16-.01.22-.03.03-.07.04-.1.04Z"/><path class="cls-1" d="m240.4,162.09s-.08-.02-.11-.05c-3.73-3.84-7.84-7.36-12.2-10.46-.07-.05-.09-.14-.04-.21.05-.07.14-.09.21-.04,4.38,3.11,8.5,6.64,12.25,10.5.06.06.06.16,0,.22-.03.03-.07.04-.11.04Z"/><path class="cls-3" d="m214.71,117.53c1.3-1.76,3.29-2.88,5.47-3.08,1.24-.11,2.8-.24,4.53-.32.1.31.23.61.4.9.5.83,1.29,1.47,2.17,1.86.88.4,1.86.57,2.82.46.94-.11,1.83-.51,2.48-1.21.53-.57,1.16-1.26,1.33-2.01,1.57.09,2.81.22,4.29.45,2.82.44,5.3,2.12,6.79,4.55,2.73,4.46,7.47,12.39,7.72,18.77.41,10.28-16.29,5.92-16.29,5.92l-18.75-1.72-10.86-8.41s3.38-10.06,7.9-16.16Z"/><path class="cls-6" d="m236.21,141.75c.13.87-.75,1.54-1.55,1.18-1.64-.72-3.41-1.09-5.2-1.07l-7.74.08s-.6-9.98,10.34-8.77c0,0,3.3,2.87,4.15,8.59Z"/><path class="cls-1" d="m227.42,142.12c-.07,0-.14-.05-.15-.13-.09-.61.05-1.28.4-1.89.28-.5.69-.97,1.26-1.44.11-.09.24-.19.4-.26.08-.03.17,0,.2.08.03.08,0,.17-.08.2-.12.05-.22.14-.32.22-.54.44-.93.88-1.19,1.35-.31.55-.44,1.16-.36,1.7.01.08-.05.16-.13.17,0,0-.01,0-.02,0Z"/><path class="cls-1" d="m224.92,141.98s-.01,0-.02,0c-.08-.01-.14-.09-.13-.17.1-.68.23-1.47.53-2.22.31-.79.78-1.43,1.34-1.87.07-.05.16-.04.22.03.05.07.04.16-.03.22-.52.4-.95,1-1.25,1.74-.29.72-.42,1.49-.51,2.14-.01.08-.08.13-.15.13Z"/><path class="cls-1" d="m222.92,141.98c-.08,0-.14-.06-.15-.14-.35-2.95,1.53-4.73,1.61-4.8.06-.06.16-.05.22,0,.06.06.05.16,0,.22-.02.02-1.84,1.76-1.51,4.54.01.08-.05.16-.13.17,0,0-.01,0-.02,0Z"/><path class="cls-1" d="m202.82,143.44h28.23c.17,0,.33-.04.47-.14.32-.22.43-.62.31-.96-.33-.7-1.02-.94-2.04-.94h-28.83l.37,1.02c.23.62.82,1.03,1.48,1.03Z"/><path class="cls-1" d="m202.66,143.44c-.56,0-1.07-.34-1.28-.87l-5-12.55c-.13-.33-.09-.71.11-1.01.2-.3.54-.47.89-.47h17.35c1.05,0,1.98.66,2.33,1.65l4.69,13.25h-19.1Z"/><path class="cls-6" d="m219.46,141.68h-17.2c-.08,0-.15-.07-.15-.15s.07-.15.15-.15h17.2c.08,0,.15.07.15.15s-.07.15-.15.15Z"/><path class="cls-1" d="m245.25,133.49h0l-12.62-.24c-.08,0-.15-.07-.15-.16,0-.08.07-.15.16-.15l12.62.24c.08,0,.15.07.15.16,0,.08-.07.15-.15.15Z"/><path class="cls-1" d="m241.03,132.78c-.07,0-.13-.04-.15-.11-.45-1.51-1.08-2.98-1.86-4.35-.21-.36-.39-.53-.59-.53,0,0-.01,0-.02,0-.08,0-.15-.07-.15-.15,0-.08.06-.16.15-.16.43-.02.71.38.88.68.79,1.39,1.43,2.88,1.89,4.41.02.08-.02.17-.1.19-.01,0-.03,0-.04,0Z"/></svg>