<?xml version="1.0" encoding="utf-8"?>
<!-- Generator: Adobe Illustrator 27.8.1, SVG Export Plug-In . SVG Version: 6.00 Build 0)  -->
<svg version="1.1" id="Layer_1" xmlns="http://www.w3.org/2000/svg" xmlns:xlink="http://www.w3.org/1999/xlink" x="0px" y="0px"
	 viewBox="0 0 72.6 38.7" style="enable-background:new 0 0 72.6 38.7;" xml:space="preserve">
<style type="text/css">
	.st0{fill:#ED1C24;}
	.st1{fill:none;stroke:#ED1C24;stroke-linecap:round;stroke-linejoin:round;}
</style>
<path class="st0" d="M16.5,7c0.3,0.3,0.7,0.6,1.1,0.8C18,7.9,18.5,8,18.9,8c0.4,0,0.8-0.1,1.2-0.3c0.3-0.2,0.4-0.5,0.4-0.8
	c0-0.2,0-0.3-0.1-0.5c-0.1-0.1-0.2-0.2-0.3-0.3c-0.1-0.1-0.3-0.2-0.5-0.3l-0.6-0.2L17.8,5c-0.2-0.1-0.5-0.2-0.7-0.3
	c-0.2-0.1-0.4-0.3-0.6-0.5c-0.4-0.4-0.6-1-0.6-1.6c0-0.3,0.1-0.7,0.2-1c0.2-0.3,0.4-0.6,0.6-0.8c0.3-0.2,0.6-0.4,1-0.6
	C18.2,0.1,18.6,0,19,0c0.5,0,1.1,0.1,1.5,0.3c0.5,0.2,0.9,0.5,1.3,0.9l-0.8,1c-0.3-0.2-0.6-0.4-0.9-0.6c-0.3-0.1-0.7-0.2-1.1-0.2
	c-0.4,0-0.7,0.1-1,0.3c-0.3,0.2-0.4,0.5-0.4,0.8c0,0.2,0,0.3,0.1,0.5c0.1,0.1,0.2,0.2,0.3,0.3c0.1,0.1,0.3,0.2,0.5,0.3l0.5,0.2
	l1.2,0.5c0.3,0.1,0.5,0.2,0.7,0.4c0.2,0.1,0.4,0.3,0.6,0.5c0.2,0.2,0.3,0.4,0.4,0.7c0.1,0.3,0.1,0.6,0.1,0.9c0,0.4-0.1,0.7-0.2,1.1
	c-0.2,0.3-0.4,0.6-0.6,0.9c-0.3,0.3-0.6,0.5-1,0.6c-0.4,0.2-0.9,0.2-1.4,0.2c-1.2,0-2.4-0.5-3.3-1.3L16.5,7z M23.4,7.4
	c0-0.7,0.4-1.4,1-1.7c1-0.5,2-0.8,3.1-0.8c0-0.2,0-0.3-0.1-0.5c-0.1-0.1-0.1-0.3-0.2-0.4c-0.1-0.1-0.2-0.2-0.4-0.3
	c-0.2-0.1-0.4-0.1-0.6-0.1c-0.3,0-0.7,0.1-1,0.2c-0.3,0.1-0.6,0.3-0.9,0.5l-0.6-1.1c0.4-0.3,0.8-0.5,1.3-0.6c0.5-0.2,1-0.3,1.5-0.3
	c0.7-0.1,1.4,0.2,1.9,0.7c0.5,0.7,0.7,1.5,0.6,2.2v4.1h-1.3l-0.1-0.8c-0.3,0.3-0.6,0.5-1,0.7c-0.4,0.2-0.7,0.3-1.1,0.3
	c-0.5,0-1.1-0.2-1.5-0.6C23.6,8.6,23.4,8,23.4,7.4L23.4,7.4z M25,7.3c0,0.3,0.1,0.5,0.3,0.7c0.2,0.1,0.5,0.2,0.7,0.2
	c0.3,0,0.5-0.1,0.7-0.2c0.3-0.2,0.5-0.3,0.7-0.6V5.9c-0.4,0-0.8,0.1-1.2,0.2c-0.3,0.1-0.5,0.2-0.8,0.3c-0.2,0.1-0.3,0.2-0.4,0.4
	C25,7,25,7.2,25,7.3z M30.2,2.4h1.6l1,3.6l0.3,1c0.1,0.3,0.2,0.7,0.3,1h0.1c0.1-0.4,0.2-0.7,0.3-1s0.2-0.6,0.3-1l1.1-3.6h1.5
	l-2.3,6.9h-1.9L30.2,2.4z M37.5,5.9c0-0.5,0.1-1,0.3-1.5C38,4,38.2,3.6,38.5,3.2c0.3-0.3,0.6-0.5,1-0.7c0.4-0.2,0.8-0.3,1.2-0.2
	c0.4,0,0.8,0.1,1.2,0.2c0.3,0.2,0.6,0.4,0.9,0.7c0.2,0.3,0.4,0.6,0.5,1c0.1,0.4,0.2,0.9,0.2,1.3c0,0.3,0,0.5-0.1,0.8H39
	c0,0.5,0.3,1.1,0.7,1.4C40,8.1,40.5,8.2,41,8.2c0.3,0,0.6,0,0.8-0.1c0.3-0.1,0.5-0.2,0.8-0.4l0.5,1c-0.3,0.2-0.7,0.4-1.1,0.5
	c-0.4,0.1-0.8,0.2-1.3,0.2c-0.5,0-0.9-0.1-1.3-0.2c-0.4-0.2-0.8-0.4-1.1-0.7c-0.3-0.3-0.6-0.7-0.7-1.1C37.5,6.9,37.5,6.4,37.5,5.9
	L37.5,5.9z M42.1,5.3c0-0.5-0.1-0.9-0.4-1.3c-0.3-0.3-0.7-0.5-1.1-0.5c-0.4,0-0.8,0.2-1.1,0.5c-0.3,0.3-0.6,0.8-0.6,1.3L42.1,5.3z
	 M47.5,8.4c0.6-0.6,1.2-1.2,1.7-1.7s0.9-1,1.3-1.4C50.7,5,51,4.6,51.2,4.1c0.2-0.3,0.3-0.7,0.3-1.1c0-0.4-0.1-0.8-0.4-1.1
	c-0.3-0.3-0.7-0.4-1.1-0.4c-0.3,0-0.7,0.1-0.9,0.3c-0.3,0.2-0.6,0.4-0.8,0.7l-0.9-0.9c0.4-0.4,0.8-0.7,1.3-1
	c0.8-0.4,1.8-0.5,2.7-0.2C51.7,0.6,52,0.8,52.2,1c0.2,0.2,0.4,0.5,0.6,0.9C52.9,2.2,53,2.6,53,3c0,0.4-0.1,0.8-0.3,1.2
	C52.5,4.6,52.3,5,52,5.4c-0.3,0.4-0.6,0.9-1,1.3c-0.4,0.4-0.8,0.9-1.2,1.4L50.5,8c0.3,0,0.5,0,0.7,0h2.2v1.3h-6L47.5,8.4z M57.6,9.5
	c-0.9,0-1.7-0.4-2.2-1.2c-0.6-1-0.9-2.3-0.8-3.5c-0.1-1.2,0.2-2.4,0.8-3.4c0.8-1.2,2.5-1.5,3.7-0.7c0.3,0.2,0.5,0.4,0.7,0.7
	c0.6,1,0.9,2.2,0.8,3.4c0.1,1.2-0.2,2.4-0.8,3.5C59.4,9.1,58.5,9.5,57.6,9.5z M57.6,8.2c0.2,0,0.4-0.1,0.6-0.2
	c0.2-0.1,0.4-0.3,0.5-0.6c0.1-0.3,0.2-0.7,0.3-1c0.1-0.5,0.1-1.1,0.1-1.6c0-0.5,0-1.1-0.1-1.6c-0.1-0.3-0.2-0.7-0.3-1
	c-0.1-0.2-0.3-0.4-0.5-0.5c-0.4-0.2-0.8-0.2-1.2,0c-0.2,0.1-0.4,0.3-0.5,0.5c-0.1,0.3-0.3,0.7-0.3,1c-0.1,0.5-0.1,1.1-0.1,1.6
	c0,0.5,0,1.1,0.1,1.6c0.1,0.4,0.2,0.7,0.3,1.1c0.1,0.2,0.3,0.4,0.5,0.6C57.2,8.2,57.4,8.2,57.6,8.2z M63.8,5.8
	c-0.6,0-1.2-0.3-1.6-0.8c-0.4-0.6-0.7-1.4-0.6-2.2c0-0.7,0.2-1.5,0.6-2.1c0.7-0.9,1.9-1,2.8-0.3c0.1,0.1,0.2,0.2,0.3,0.3
	c0.4,0.6,0.6,1.4,0.6,2.1c0,0.8-0.2,1.5-0.6,2.1C65.1,5.5,64.5,5.8,63.8,5.8L63.8,5.8z M63.8,4.8c0.3,0,0.6-0.2,0.7-0.5
	c0.2-0.5,0.3-1,0.3-1.5c0-0.5-0.1-1-0.3-1.5C64.4,1,63.9,0.8,63.5,1c-0.2,0.1-0.3,0.2-0.4,0.4c-0.2,0.5-0.3,1-0.3,1.5
	c0,0.5,0.1,1,0.3,1.5C63.2,4.7,63.5,4.8,63.8,4.8L63.8,4.8z M64.1,9.5l5-9.5h1l-5,9.5H64.1z M70.4,9.5c-0.6,0-1.2-0.3-1.6-0.8
	c-0.4-0.6-0.7-1.4-0.6-2.2c0-0.8,0.2-1.5,0.6-2.1c0.7-0.9,1.9-1,2.8-0.3c0.1,0.1,0.2,0.2,0.3,0.3c0.4,0.6,0.7,1.4,0.6,2.1
	c0.1,0.8-0.2,1.5-0.6,2.2C71.6,9.2,71,9.5,70.4,9.5L70.4,9.5z M70.4,8.5c0.3,0,0.6-0.2,0.7-0.5c0.2-0.5,0.3-1,0.3-1.5
	c0-0.5-0.1-1-0.3-1.5c-0.2-0.4-0.7-0.6-1.1-0.4c-0.2,0.1-0.3,0.2-0.4,0.4c-0.2,0.5-0.3,1-0.3,1.5c0,0.5,0.1,1,0.3,1.5
	C69.8,8.4,70.1,8.5,70.4,8.5L70.4,8.5z"/>
<g>
	<path class="st1" d="M0.5,36.2c19.2-1.6,31.6-7.9,37.1-19.1"/>
	<path class="st1" d="M0.5,36.2l2.7,2"/>
	<path class="st1" d="M0.5,36.2l2.7-2.3"/>
</g>
</svg>
